<svg width="50" height="38" viewBox="0 0 50 38" fill="none" xmlns="http://www.w3.org/2000/svg">
<rect width="50" height="37.5" rx="10" fill="white"/>
<path d="M24.8036 8.54272V3.54272C22.9634 4.54967 18.5536 6.93856 15.637 8.43856C12.7203 9.93855 12.1995 11.7719 12.3036 12.5011V17.5011C15.1509 15.9733 21.262 12.6677 22.9286 11.6677C24.5953 10.6677 24.8731 9.16772 24.8036 8.54272Z" fill="black" stroke="black"/>
<path d="M30.9373 12.7094V3.54272C32.3262 4.27189 35.3748 5.89689 36.4582 6.56356C37.5415 7.23022 37.8123 8.43856 37.8123 8.95939V12.7094V28.9594C37.8123 29.876 37.1179 30.4524 36.7707 30.626L30.9373 33.9594V20.0011L19.0623 26.4594V34.0635C17.4304 33.0913 13.979 31.0219 13.229 30.5219C12.479 30.0219 12.2915 28.9941 12.2915 28.5427V24.7927C12.2915 23.1261 13.6804 22.0149 14.3748 21.6677L30.9373 12.7094Z" fill="black" stroke="black"/>
</svg>
